<svg width="26" height="26" viewBox="0 0 26 26" fill="none" xmlns="http://www.w3.org/2000/svg">
<path d="M21.6777 6.38459C21.6093 6.32968 21.5273 6.2944 21.4404 6.28252C21.3536 6.27064 21.2651 6.28262 21.1845 6.31716L13.3357 9.71585C12.9945 9.86453 12.5671 9.93522 12.1284 9.93522C11.5166 9.93766 10.8836 9.79547 10.4424 9.6021C10.308 9.54547 10.18 9.47465 10.0606 9.39085C10.0931 9.3746 10.1337 9.35672 10.1784 9.33885L17.317 6.2481L18.3814 6.70309V5.37303C18.383 5.27818 18.3631 5.1842 18.3233 5.09809C18.2835 5.01199 18.2247 4.93599 18.1514 4.87578C18.0834 4.82093 18.0016 4.78567 17.915 4.77379C17.8284 4.76191 17.7402 4.77385 17.6599 4.80835L9.81112 8.20703C9.56899 8.30453 9.36099 8.42478 9.18549 8.59947C8.98226 8.79996 8.86685 9.07287 8.86455 9.35835C8.86455 9.36647 8.86699 9.38028 8.86699 9.38028V21.3484L8.86537 21.3647C8.86537 21.3679 8.8678 21.3695 8.8678 21.3728V21.3858H8.86943C8.88568 21.8042 9.09693 22.0707 9.29843 22.2592C9.93218 22.8182 10.9966 23.131 12.1292 23.1473C12.6654 23.1473 13.2098 23.066 13.7136 22.8499L21.5647 19.4504C21.7719 19.361 21.9076 19.1392 21.9076 18.8882V6.88185C21.9089 6.78705 21.8889 6.69318 21.8491 6.60713C21.8093 6.52108 21.7507 6.44504 21.6777 6.38459ZM16.6995 4.1096C16.6857 3.93085 16.6117 3.76022 16.4801 3.65784C16.4118 3.60293 16.3297 3.56765 16.2429 3.55577C16.156 3.54389 16.0675 3.55587 15.9869 3.59041L8.13818 6.98747C7.79693 7.13535 7.36874 7.20685 6.9308 7.20685C6.31899 7.20847 5.68605 7.06628 5.24487 6.8721C5.11028 6.81641 4.98222 6.74612 4.86299 6.66247C4.89549 6.64622 4.93612 6.62835 4.9808 6.61047L12.1202 3.51972L13.1846 3.97472V2.64628C13.1861 2.55138 13.1661 2.45737 13.1261 2.37127C13.0862 2.28517 13.0273 2.2092 12.9539 2.14903C12.8856 2.09419 12.8038 2.05895 12.717 2.04707C12.6303 2.03519 12.542 2.04712 12.4615 2.08159L4.61274 5.48109C4.37062 5.57859 4.16343 5.69803 3.98712 5.87353C3.78419 6.07416 3.66907 6.34705 3.66699 6.63241C3.66699 6.64216 3.66943 6.65516 3.66943 6.65516V18.6615H3.67105C3.6873 19.0799 3.89855 19.3464 4.10005 19.5349C4.7338 20.0939 5.79818 20.4059 6.93162 20.4222C7.23942 20.4203 7.54624 20.3871 7.8473 20.323V9.37947C7.83918 8.81072 8.06668 8.26472 8.46643 7.87147C8.74338 7.60282 9.07244 7.39378 9.4333 7.25722L16.6995 4.1096Z" fill="url(#paint0_linear_853_181)"/>
<defs>
<linearGradient id="paint0_linear_853_181" x1="12.7873" y1="2.0426" x2="12.7873" y2="23.1473" gradientUnits="userSpaceOnUse">
<stop stop-color="#00ACFF"/>
<stop offset="1" stop-color="#5061FF"/>
</linearGradient>
</defs>
</svg>
