<svg width="26" height="30" viewBox="0 0 26 30" fill="none" xmlns="http://www.w3.org/2000/svg">
<path d="M8.89474 15C9.62059 15 10.3167 14.7127 10.83 14.2012C11.3432 13.6897 11.6316 12.996 11.6316 12.2727C11.6316 11.5494 11.3432 10.8557 10.83 10.3443C10.3167 9.83279 9.62059 9.54545 8.89474 9.54545C8.16888 9.54545 7.47275 9.83279 6.9595 10.3443C6.44624 10.8557 6.1579 11.5494 6.1579 12.2727C6.1579 12.996 6.44624 13.6897 6.9595 14.2012C7.47275 14.7127 8.16888 15 8.89474 15ZM13 0L26 7.5V22.5L13 30L0 22.5V7.5L13 0ZM2.73684 9.07227V20.9277L5.98274 22.8L17.03 14.7273L23.2632 18.4555V9.07364L13 3.15L2.73684 9.07227Z" fill="url(#paint0_linear_15_282)"/>
<defs>
<linearGradient id="paint0_linear_15_282" x1="13" y1="0" x2="13" y2="30" gradientUnits="userSpaceOnUse">
<stop stop-color="#00ACFF" stop-opacity="0.9"/>
<stop offset="1" stop-color="#5061FF"/>
</linearGradient>
</defs>
</svg>
