<svg width="26" height="26" viewBox="0 0 26 26" fill="none" xmlns="http://www.w3.org/2000/svg">
<path d="M23.021 6.25079V9.74996C23.021 12.0412 22.255 12.8905 20.1837 13.0075C20.113 13.0105 20.0424 12.999 19.9763 12.9737C19.9101 12.9484 19.8499 12.9099 19.7992 12.8605C19.7484 12.8111 19.7083 12.7519 19.6813 12.6864C19.6543 12.621 19.6409 12.5507 19.642 12.48V11.245C19.642 7.86496 18.1362 6.35913 14.7562 6.35913H13.5212C13.4504 6.36022 13.3802 6.34685 13.3147 6.31983C13.2493 6.29282 13.1901 6.25272 13.1407 6.20201C13.0913 6.1513 13.0527 6.09103 13.0275 6.02491C13.0022 5.95878 12.9907 5.88819 12.9936 5.81746C13.1095 3.74613 13.96 2.97913 16.2512 2.97913H19.7504C22.2312 2.97913 23.021 3.76996 23.021 6.25079Z" fill="url(#paint0_linear_15_295)"/>
<path d="M18.0158 11.2461V14.7561C18.0158 17.2261 17.225 18.0169 14.755 18.0169H11.245C8.77496 18.0169 7.98413 17.2261 7.98413 14.7561V11.2461C7.98413 8.77606 8.77496 7.98523 11.245 7.98523H14.755C17.225 7.98523 18.0158 8.77606 18.0158 11.2461Z" fill="url(#paint1_linear_15_295)"/>
<path d="M12.4801 19.6408C12.551 19.6397 12.6213 19.6531 12.6868 19.6802C12.7523 19.7073 12.8116 19.7475 12.861 19.7983C12.9104 19.8491 12.9489 19.9095 12.9742 19.9758C12.9994 20.042 13.0108 20.1127 13.0077 20.1836C12.8907 22.2549 12.0413 23.0219 9.75008 23.0219H6.25091C3.77008 23.0219 2.97925 22.2311 2.97925 19.7502V16.25C2.97925 13.9587 3.74625 13.1083 5.81758 12.9924C5.88822 12.9894 5.95872 13.0009 6.02477 13.0261C6.09082 13.0514 6.15103 13.0898 6.20173 13.1391C6.25243 13.1883 6.29255 13.2474 6.31963 13.3128C6.34671 13.3781 6.36019 13.4482 6.35925 13.5189V14.7539C6.35925 18.1339 7.86508 19.6397 11.2451 19.6397L12.4801 19.6408Z" fill="url(#paint2_linear_15_295)"/>
<defs>
<linearGradient id="paint0_linear_15_295" x1="18.0076" y1="2.97913" x2="18.0076" y2="13.008" gradientUnits="userSpaceOnUse">
<stop stop-color="#00ACFF" stop-opacity="0.9"/>
<stop offset="1" stop-color="#5061FF"/>
</linearGradient>
<linearGradient id="paint1_linear_15_295" x1="13" y1="7.98523" x2="13" y2="18.0169" gradientUnits="userSpaceOnUse">
<stop stop-color="#00ACFF" stop-opacity="0.9"/>
<stop offset="1" stop-color="#5061FF"/>
</linearGradient>
<linearGradient id="paint2_linear_15_295" x1="7.99371" y1="12.9919" x2="7.99371" y2="23.0219" gradientUnits="userSpaceOnUse">
<stop stop-color="#00ACFF" stop-opacity="0.9"/>
<stop offset="1" stop-color="#5061FF"/>
</linearGradient>
</defs>
</svg>
