<svg width="26" height="26" viewBox="0 0 26 26" fill="none" xmlns="http://www.w3.org/2000/svg">
<g clip-path="url(#clip0_853_178)">
<path d="M24.5212 20.7838C24.7277 20.623 24.8923 20.4147 25.001 20.1766C25.1097 19.9386 25.1593 19.6778 25.1456 19.4164C25.1319 19.1551 25.0553 18.9009 24.9222 18.6756C24.7892 18.4502 24.6037 18.2603 24.3815 18.122L24.375 8.66125L22.75 9.75V18.1187C22.5304 18.257 22.347 18.4457 22.2152 18.6693C22.0834 18.8928 22.007 19.1446 21.9923 19.4037C21.9777 19.6628 22.0253 19.9217 22.1311 20.1586C22.2369 20.3956 22.3978 20.6038 22.6005 20.7659L21.9862 21.5816C21.44 22.2766 21.1373 23.132 21.125 24.0159V26.0016H22.4494C22.7675 26.0016 23.0766 25.8955 23.3276 25.7C23.5787 25.5046 23.7574 25.231 23.8355 24.9226L24.3734 22.7516V26.0016H25.9984V24.0354C25.986 23.1469 25.681 22.2873 25.1306 21.5898L24.5212 20.7838ZM13 0L0 6.5L13 14.625L26 6.5L13 0Z" fill="url(#paint0_linear_853_178)"/>
<path d="M13 16.25L4.875 10.8387V13.6175C4.875 15.0962 9.6525 19.5 13 19.5C16.3475 19.5 21.125 15.0962 21.125 13.6175V10.8387L13 16.25Z" fill="url(#paint1_linear_853_178)"/>
</g>
<defs>
<linearGradient id="paint0_linear_853_178" x1="13" y1="0" x2="13" y2="26.0016" gradientUnits="userSpaceOnUse">
<stop stop-color="#00ACFF"/>
<stop offset="1" stop-color="#5061FF"/>
</linearGradient>
<linearGradient id="paint1_linear_853_178" x1="13" y1="10.8387" x2="13" y2="19.5" gradientUnits="userSpaceOnUse">
<stop stop-color="#00ACFF"/>
<stop offset="1" stop-color="#5061FF"/>
</linearGradient>
<clipPath id="clip0_853_178">
<rect width="26" height="26" fill="white"/>
</clipPath>
</defs>
</svg>
