<svg width="26" height="26" viewBox="0 0 26 26" fill="none" xmlns="http://www.w3.org/2000/svg">
<path d="M13 24.9167C10.9778 24.9167 9.1181 24.4563 7.42087 23.5355C5.72365 22.6146 4.33337 21.3868 3.25004 19.8521V22.75H1.08337V16.25H7.58337V18.4167H4.90212C5.76879 19.7167 6.91099 20.7639 8.32871 21.5584C9.74643 22.3528 11.3035 22.75 13 22.75C14.3542 22.75 15.6228 22.4926 16.8058 21.9776C17.9888 21.4627 19.018 20.7679 19.8933 19.8933C20.7686 19.0172 21.4638 17.9881 21.9787 16.8058C22.4937 15.6235 22.7508 14.3549 22.75 13H24.9167C24.9167 14.6431 24.6051 16.1868 23.9818 17.6313C23.3585 19.0757 22.5056 20.3396 21.423 21.423C20.3396 22.5063 19.0757 23.3596 17.6313 23.9829C16.1868 24.6062 14.6431 24.9174 13 24.9167ZM1.08337 13C1.08337 11.357 1.39501 9.81324 2.01829 8.36879C2.64157 6.92435 3.49451 5.66046 4.57712 4.57712C5.66046 3.49379 6.92435 2.64085 8.36879 2.01829C9.81324 1.39574 11.357 1.0841 13 1.08337C15.0223 1.08337 16.882 1.54379 18.5792 2.46462C20.2764 3.38546 21.6667 4.61324 22.75 6.14796V3.25004H24.9167V9.75004H18.4167V7.58337H21.098C20.2313 6.28337 19.0891 5.23615 17.6714 4.44171C16.2537 3.64726 14.6965 3.25004 13 3.25004C11.6459 3.25004 10.3773 3.50751 9.19429 4.02246C8.01129 4.5374 6.98212 5.23218 6.10679 6.10679C5.23218 6.98285 4.53776 8.01237 4.02354 9.19537C3.50932 10.3784 3.25149 11.6466 3.25004 13H1.08337ZM13 18.4167L11.3209 14.6792L7.58337 13L11.3209 11.2938L13 7.58337L14.7063 11.2938L18.4167 13L14.7063 14.6792L13 18.4167Z" fill="url(#paint0_linear_10_233)"/>
<defs>
<linearGradient id="paint0_linear_10_233" x1="13" y1="1.08337" x2="13" y2="24.9167" gradientUnits="userSpaceOnUse">
<stop stop-color="#00ACFF" stop-opacity="0.9"/>
<stop offset="1" stop-color="#5061FF"/>
</linearGradient>
</defs>
</svg>
