<svg width="26" height="26" viewBox="0 0 26 26" fill="none" xmlns="http://www.w3.org/2000/svg">
<g clip-path="url(#clip0_10_235)">
<path d="M13 8.66667L9.75 10.5625V14.3542L13 16.25L16.25 14.3542V10.5625L13 8.66667ZM14.6434 10.8767L12.9859 11.843L11.3425 10.8843L13 9.91792L14.6434 10.8767ZM10.8225 11.8322L12.4302 12.7703V14.6662L10.8225 13.7291V11.8322ZM13.5027 14.7063V12.792L15.1775 11.8148V13.7291L13.5027 14.7063ZM3.25 0L0 1.89583V5.6875L3.25 7.58333L6.5 5.6875V1.89583L3.25 0ZM4.89342 2.21L3.23592 3.17633L1.5925 2.21758L3.25 1.25125L4.89342 2.21ZM1.0725 3.16442L2.68017 4.10258V5.99842L1.0725 5.0635V3.16442ZM3.75267 6.0385V4.12533L5.4275 3.14817V5.06242L3.75267 6.0385ZM3.25 18.4167L0 20.3125V24.1042L3.25 26L6.5 24.1042V20.3125L3.25 18.4167ZM4.89342 20.6267L3.23592 21.593L1.5925 20.6343L3.25 19.6679L4.89342 20.6267ZM1.0725 21.5822L2.68017 22.5203V24.4162L1.0725 23.4802V21.5822ZM3.75267 24.4563V22.542L5.4275 21.5648V23.4791L3.75267 24.4563ZM22.75 0L19.5 1.89583V5.6875L22.75 7.58333L26 5.6875V1.89583L22.75 0ZM24.3934 2.21L22.7359 3.17633L21.0925 2.21758L22.75 1.25125L24.3934 2.21ZM20.5725 3.1655L22.1802 4.10367V5.9995L20.5725 5.06242V3.1655ZM23.2527 6.03958V4.12533L24.9275 3.14817V5.06242L23.2527 6.03958ZM22.75 18.4167L19.5 20.3125V24.1042L22.75 26L26 24.1042V20.3125L22.75 18.4167ZM24.3934 20.6267L22.7359 21.593L21.0925 20.6343L22.75 19.6679L24.3934 20.6267ZM20.5725 21.5822L22.1802 22.5203V24.4162L20.5725 23.4791V21.5822ZM23.2527 24.4563V22.542L24.9275 21.5648V23.4791L23.2527 24.4563ZM9.75 3.25H16.25V4.33333H9.75V3.25ZM9.75 21.6667H16.25V22.75H9.75V21.6667ZM3.79167 9.75V16.25H2.70833V9.75H3.79167ZM7.90075 9.56367L5.603 7.26592L6.36892 6.5L8.66667 8.79667L7.90075 9.56367ZM17.3333 8.98408L19.6311 6.68633L20.397 7.45225L18.0993 9.75L17.3333 8.98408ZM8.80533 16.1189L6.50758 18.4167L5.74167 17.6507L8.03942 15.353L8.80533 16.1189ZM18.2856 15.3064L20.5833 17.6042L19.8174 18.3701L17.5197 16.0723L18.2856 15.3064ZM23.2917 9.75V16.25H22.2083V9.75H23.2917Z" fill="url(#paint0_linear_10_235)"/>
</g>
<defs>
<linearGradient id="paint0_linear_10_235" x1="13" y1="0" x2="13" y2="26" gradientUnits="userSpaceOnUse">
<stop stop-color="#00ACFF" stop-opacity="0.9"/>
<stop offset="1" stop-color="#5061FF"/>
</linearGradient>
<clipPath id="clip0_10_235">
<rect width="26" height="26" fill="white"/>
</clipPath>
</defs>
</svg>
