<svg width="26" height="26" viewBox="0 0 26 26" fill="none" xmlns="http://www.w3.org/2000/svg">
<path d="M10.1766 1.39087L9.18633 9.29294H11.3598L13.8531 1.84993L10.1766 1.39087ZM14.8332 1.79712L12.3246 9.29294L19.9266 9.29802L21.6684 4.08735L14.8332 1.79712ZM9.14062 2.33743L5.48945 2.73556L6.20547 9.29294H8.27227L9.14062 2.33743ZM3.25 7.7695C2.66602 7.7695 2.27602 8.21638 2.16988 8.64294C2.11707 8.85622 2.14703 9.02888 2.20695 9.12536C2.26637 9.21677 2.34863 9.29294 2.64062 9.29294H5.28633L5.11875 7.7695H3.25ZM21.3992 7.7695L20.8914 9.29294H23.3035C23.1715 9.03903 23.1156 8.76989 23.1512 8.50075C23.1867 8.23669 23.2883 7.99802 23.4203 7.7695H21.3992ZM2.08203 10.207V22.7449C2.08203 23.0039 2.22371 23.3086 2.45629 23.5422C2.68937 23.7758 2.99609 23.9179 3.25 23.9179L22.75 23.923C23.0039 23.923 23.3086 23.7808 23.5422 23.5472C23.7758 23.3136 23.918 23.009 23.918 22.75V19.1445H19.5C17.2656 19.1445 17.2656 14.9804 19.5 14.9804H23.918V10.2121L2.08203 10.207ZM19.5 15.8945C18.4844 15.8945 18.4844 18.2304 19.5 18.2304H20.6324C20.1754 18.0375 19.8555 17.5855 19.8555 17.0625C19.8555 16.5394 20.1754 16.0875 20.6324 15.8945H19.5ZM21.6176 15.8945C22.0746 16.0875 22.3945 16.5394 22.3945 17.0625C22.3945 17.5855 22.0746 18.0375 21.6176 18.2304H24.7305V15.8945H21.6176ZM21.125 16.707C20.9219 16.707 20.7695 16.8593 20.7695 17.0625C20.7695 17.2656 20.9219 17.4179 21.125 17.4179C21.3281 17.4179 21.4805 17.2656 21.4805 17.0625C21.4805 16.8593 21.3281 16.707 21.125 16.707Z" fill="url(#paint0_linear_10_242)"/>
<defs>
<linearGradient id="paint0_linear_10_242" x1="13.4062" y1="1.39087" x2="13.4063" y2="23.923" gradientUnits="userSpaceOnUse">
<stop stop-color="#00ACFF" stop-opacity="0.9"/>
<stop offset="1" stop-color="#5061FF"/>
</linearGradient>
</defs>
</svg>
