<svg width="26" height="28" viewBox="0 0 26 28" fill="none" xmlns="http://www.w3.org/2000/svg">
<path d="M12.6802 0C12.2392 0 11.7859 0.060505 11.5041 0.152161C11.3816 0.193496 11.3081 0.238425 11.2713 0.262987V8.51861C11.743 8.51262 12.2086 8.50663 12.6802 8.50663C13.1519 8.50663 13.6175 8.51262 14.0892 8.51861V0.262987C14.0524 0.238425 13.9789 0.193496 13.8564 0.152161C13.5746 0.060505 13.1213 0 12.6802 0ZM10.1687 1.12443C8.38612 1.71271 6.78118 2.91622 5.49477 4.57681C4.53304 5.81686 3.74894 7.3205 3.22213 8.99187C5.69692 8.75824 7.95731 8.60847 10.1687 8.54258V1.12443ZM15.1918 1.12443V8.54258C17.4032 8.60847 19.6636 8.75824 22.1384 8.99187C21.6116 7.3205 20.8275 5.81686 19.8657 4.57681C18.5793 2.91622 16.9744 1.71271 15.1918 1.12443ZM12.6802 9.58494C9.02932 9.58494 5.37839 9.82456 0.979503 10.2978L0.949487 10.3038H0.918859C0.880879 10.3038 0.833711 10.3098 0.714259 10.4596C0.594195 10.6153 0.455754 10.9029 0.344878 11.2683C0.12374 11.9991 0 13.0415 0 14.0779C0 15.1142 0.12374 16.1566 0.344878 16.8875C0.455754 17.2529 0.594195 17.5404 0.714259 17.6962C0.833711 17.846 0.880879 17.8519 0.918859 17.8519C7.72454 17.8519 9.61739 16.8935 12.6802 16.8935C15.7431 16.8935 17.636 17.8519 24.4416 17.8519C24.4784 17.8519 24.5274 17.846 24.6438 17.6962C24.7663 17.5404 24.9072 17.2529 25.0175 16.8875C25.238 16.1566 25.3605 15.1142 25.3605 14.0779C25.3605 13.0415 25.238 11.9991 25.0175 11.2683C24.9072 10.9029 24.7663 10.6153 24.6438 10.4596C24.5274 10.3098 24.4784 10.3038 24.4416 10.3038H24.411L24.3804 10.2978C19.9821 9.82456 16.3312 9.58494 12.6802 9.58494ZM2.38903 11.6217C2.9575 11.6217 3.43041 12.083 3.43041 12.6401C3.43041 13.1973 2.9575 13.6585 2.38903 13.6585C1.82057 13.6585 1.34766 13.1973 1.34766 12.6401C1.34766 12.083 1.82057 11.6217 2.38903 11.6217ZM12.6802 17.9718C10.1871 17.9718 8.31261 18.7206 3.13637 18.8943C3.66931 20.6735 4.4779 22.267 5.49477 23.5789C7.36312 25.9872 9.89917 27.4369 12.6802 27.4369C15.4613 27.4369 17.9974 25.9872 19.8657 23.5789C20.8826 22.267 21.6912 20.6735 22.2241 18.8943C17.0479 18.7206 15.1734 17.9718 12.6802 17.9718ZM25.3299 18.5588C25.091 18.7745 24.7908 18.9303 24.4416 18.9303H24.2885C24.3498 19.1699 24.411 19.4275 24.4723 19.697C24.7418 20.8712 24.9623 22.303 24.8766 23.1237C24.7969 23.8365 24.3252 24.795 23.8719 25.7535C23.4125 26.718 22.9837 27.4728 22.9837 27.4728L23.9393 28C23.9393 28 24.3926 27.2152 24.8704 26.2088C25.3482 25.2024 25.8567 24.2439 25.9669 23.2435C26.0956 22.1292 25.8261 20.6855 25.5504 19.4634C25.4769 19.1399 25.4034 18.8344 25.3299 18.5588ZM10.72 19.2897H14.6405V20.368H10.72V19.2897ZM8.75978 22.6444H16.6007V23.7227H8.75978V22.6444Z" fill="url(#paint0_linear_10_275)" fill-opacity="0.9"/>
<defs>
<linearGradient id="paint0_linear_10_275" x1="13" y1="0" x2="13" y2="28" gradientUnits="userSpaceOnUse">
<stop stop-color="#00ACFF"/>
<stop offset="1" stop-color="#5061FF"/>
</linearGradient>
</defs>
</svg>
