<svg width="26" height="26" viewBox="0 0 26 26" fill="none" xmlns="http://www.w3.org/2000/svg">
<path d="M20.0417 11.9166L15.1667 9.74996V4.33329M20.0417 11.9166L24.9167 9.74996V4.33329M20.0417 11.9166V6.49996M24.9167 4.33329L20.0417 2.16663L15.1667 4.33329M24.9167 4.33329L20.0417 6.49996M15.1667 4.33329L20.0417 6.49996M7.58337 16.25C6.4341 16.25 5.3319 15.7934 4.51924 14.9808C3.70659 14.1681 3.25004 13.0659 3.25004 11.9166C3.25004 10.7674 3.70659 9.66515 4.51924 8.8525C5.3319 8.03984 6.4341 7.58329 7.58337 7.58329C8.73265 7.58329 9.83485 8.03984 10.6475 8.8525C11.4602 9.66515 11.9167 10.7674 11.9167 11.9166C11.9167 13.0659 11.4602 14.1681 10.6475 14.9808C9.83485 15.7934 8.73265 16.25 7.58337 16.25ZM7.58337 16.25C3.79171 16.25 1.08337 18.4166 1.08337 22.75V24.9166H14.0834V22.75C14.0834 18.4166 11.375 16.25 7.58337 16.25Z" stroke="url(#paint0_linear_15_293)" stroke-opacity="0.9" stroke-width="2"/>
<defs>
<linearGradient id="paint0_linear_15_293" x1="13" y1="2.16663" x2="13" y2="24.9166" gradientUnits="userSpaceOnUse">
<stop stop-color="#00ACFF"/>
<stop offset="1" stop-color="#5061FF"/>
</linearGradient>
</defs>
</svg>
