<svg width="531" height="382" viewBox="0 0 531 382" fill="none" xmlns="http://www.w3.org/2000/svg">
<path d="M530.731 347.347H0.267578V347.612H530.731V347.347Z" fill="#E6E6E6"/>
<path d="M473.281 356.524H436.785V356.79H473.281V356.524Z" fill="#E6E6E6"/>
<path d="M275.734 356.524H264.828V356.79H275.734V356.524Z" fill="#E6E6E6"/>
<path d="M425.701 361.744H405.161V362.009H425.701V361.744Z" fill="#E6E6E6"/>
<path d="M122.942 357.15H77.1211V357.416H122.942V357.15Z" fill="#E6E6E6"/>
<path d="M136.776 353.373H118.167V353.639H136.776V353.373Z" fill="#E6E6E6"/>
<path d="M339.063 364.609H239.676V364.874H339.063V364.609Z" fill="#E6E6E6"/>
<path d="M251.705 300.03H46.851C45.2462 300.027 43.7081 299.388 42.5743 298.252C41.4405 297.116 40.8037 295.577 40.8037 293.972V6.00484C40.8177 4.40924 41.4606 2.88357 42.5929 1.75925C43.7252 0.63492 45.2553 0.00273336 46.851 0H251.705C253.312 0 254.853 0.63824 255.989 1.77431C257.125 2.91039 257.763 4.45123 257.763 6.05789V293.972C257.763 295.579 257.125 297.119 255.989 298.256C254.853 299.392 253.312 300.03 251.705 300.03ZM46.851 0.212186C45.3165 0.214996 43.8459 0.82653 42.7618 1.91256C41.6778 2.99859 41.0689 4.47037 41.0689 6.00484V293.972C41.0689 295.506 41.6778 296.978 42.7618 298.064C43.8459 299.15 45.3165 299.762 46.851 299.765H251.705C253.241 299.762 254.712 299.151 255.798 298.065C256.884 296.979 257.495 295.507 257.498 293.972V6.00484C257.495 4.46939 256.884 2.99764 255.798 1.91191C254.712 0.826186 253.241 0.21499 251.705 0.212186H46.851Z" fill="#E6E6E6"/>
<path d="M481.197 300.03H276.332C274.727 300.027 273.187 299.388 272.052 298.252C270.916 297.117 270.277 295.578 270.274 293.972V6.00484C270.291 4.40827 270.936 2.88262 272.07 1.75858C273.204 0.634549 274.736 0.00270355 276.332 0H481.197C482.791 0.00552158 484.318 0.638942 485.448 1.76297C486.578 2.887 487.22 4.41107 487.234 6.00484V293.972C487.234 295.575 486.599 297.113 485.467 298.248C484.336 299.384 482.8 300.024 481.197 300.03ZM276.332 0.212186C274.797 0.21499 273.325 0.826186 272.239 1.91191C271.154 2.99764 270.542 4.46939 270.54 6.00484V293.972C270.542 295.507 271.154 296.979 272.239 298.065C273.325 299.151 274.797 299.762 276.332 299.765H481.197C482.733 299.762 484.204 299.151 485.29 298.065C486.376 296.979 486.987 295.507 486.99 293.972V6.00484C486.987 4.46939 486.376 2.99764 485.29 1.91191C484.204 0.826186 482.733 0.21499 481.197 0.212186H276.332Z" fill="#E6E6E6"/>
<path d="M216.994 347.347H306.982C298.166 314.098 303.449 278.292 322.811 245.042H232.823C213.451 278.292 208.21 314.098 216.994 347.347Z" fill="#FAFAFA"/>
<path d="M213.928 292.816H304.892C308.015 275.976 314.073 259.817 322.789 245.074H231.836C223.12 259.818 217.059 275.977 213.928 292.816Z" fill="#E6E6E6"/>
<path d="M266.708 270.462C270.781 270.462 274.082 267.161 274.082 263.089C274.082 259.016 270.781 255.715 266.708 255.715C262.636 255.715 259.335 259.016 259.335 263.089C259.335 267.161 262.636 270.462 266.708 270.462Z" fill="#E6E6E6"/>
<path d="M233.67 340.228H336.399C338.287 340.228 340.098 340.978 341.433 342.313C342.768 343.648 343.518 345.459 343.518 347.347H226.572C226.572 345.463 227.319 343.655 228.65 342.321C229.98 340.986 231.786 340.234 233.67 340.228Z" fill="#F5F5F5"/>
<path d="M209.269 340.228H227.665C229.551 340.231 231.359 340.982 232.692 342.317C234.025 343.652 234.773 345.461 234.773 347.347H202.097C202.098 346.408 202.285 345.479 202.646 344.612C203.008 343.746 203.537 342.959 204.204 342.298C204.87 341.636 205.66 341.113 206.53 340.758C207.399 340.403 208.33 340.223 209.269 340.228Z" fill="#E6E6E6"/>
<path d="M253.648 29.9076C256.15 29.9076 258.178 27.8794 258.178 25.3774C258.178 22.8755 256.15 20.8473 253.648 20.8473C251.146 20.8473 249.118 22.8755 249.118 25.3774C249.118 27.8794 251.146 29.9076 253.648 29.9076Z" fill="white"/>
<path d="M269.699 29.9076C272.201 29.9076 274.229 27.8794 274.229 25.3774C274.229 22.8755 272.201 20.8473 269.699 20.8473C267.197 20.8473 265.169 22.8755 265.169 25.3774C265.169 27.8794 267.197 29.9076 269.699 29.9076Z" fill="white"/>
<path d="M285.764 29.9076C288.266 29.9076 290.294 27.8794 290.294 25.3774C290.294 22.8755 288.266 20.8473 285.764 20.8473C283.262 20.8473 281.233 22.8755 281.233 25.3774C281.233 27.8794 283.262 29.9076 285.764 29.9076Z" fill="white"/>
<path d="M267.017 49.9591C269.519 49.9591 271.548 47.9309 271.548 45.429C271.548 42.927 269.519 40.8988 267.017 40.8988C264.516 40.8988 262.487 42.927 262.487 45.429C262.487 47.9309 264.516 49.9591 267.017 49.9591Z" fill="#E6E6E6"/>
<path d="M283.081 49.9591C285.583 49.9591 287.611 47.9309 287.611 45.429C287.611 42.927 285.583 40.8988 283.081 40.8988C280.579 40.8988 278.551 42.927 278.551 45.429C278.551 47.9309 280.579 49.9591 283.081 49.9591Z" fill="#E6E6E6"/>
<path d="M303.691 45.429C303.691 46.3249 303.425 47.2008 302.928 47.9458C302.43 48.6908 301.722 49.2714 300.895 49.6143C300.067 49.9572 299.156 50.0469 298.277 49.8721C297.398 49.6973 296.591 49.2658 295.958 48.6323C295.324 47.9987 294.893 47.1915 294.718 46.3127C294.543 45.434 294.633 44.5231 294.976 43.6953C295.319 42.8676 295.899 42.16 296.644 41.6623C297.389 41.1645 298.265 40.8988 299.161 40.8988C300.362 40.8988 301.515 41.3761 302.364 42.2256C303.214 43.0752 303.691 44.2275 303.691 45.429Z" fill="#E6E6E6"/>
<path d="M280.395 70.0212C282.897 70.0212 284.926 67.993 284.926 65.491C284.926 62.9891 282.897 60.9609 280.395 60.9609C277.893 60.9609 275.865 62.9891 275.865 65.491C275.865 67.993 277.893 70.0212 280.395 70.0212Z" fill="#F0F0F0"/>
<path d="M296.448 70.0212C298.95 70.0212 300.978 67.993 300.978 65.491C300.978 62.9891 298.95 60.9609 296.448 60.9609C293.946 60.9609 291.918 62.9891 291.918 65.491C291.918 67.993 293.946 70.0212 296.448 70.0212Z" fill="#F0F0F0"/>
<path d="M317.039 65.491C317.041 66.3896 316.776 67.2685 316.278 68.0166C315.781 68.7647 315.072 69.3484 314.243 69.6937C313.413 70.039 312.5 70.1305 311.618 69.9564C310.737 69.7824 309.927 69.3508 309.291 68.7162C308.655 68.0816 308.221 67.2725 308.045 66.3914C307.869 65.5103 307.958 64.5968 308.302 63.7664C308.645 62.9361 309.227 62.2263 309.974 61.7269C310.721 61.2275 311.599 60.9609 312.498 60.9609C313.7 60.9609 314.854 61.4378 315.705 62.2871C316.556 63.1363 317.036 64.2886 317.039 65.491Z" fill="#F0F0F0"/>
<path d="M136.181 208.048H322.904C324.492 208.042 326.013 207.409 327.136 206.286C328.259 205.163 328.892 203.641 328.898 202.053V78.1266H130.187V202.053C130.192 203.641 130.825 205.163 131.948 206.286C133.071 207.409 134.593 208.042 136.181 208.048Z" fill="#E6E6E6"/>
<path opacity="0.5" d="M379.017 130.918H310.598V233.085H412.775V130.918H379.017ZM345.226 131.714H378.21V164.709H345.194L345.226 131.714ZM378.21 198.499H345.194V165.504H378.179L378.21 198.499ZM311.436 131.714H344.42V164.709H311.404L311.436 131.714ZM311.436 165.504H344.42V198.499H311.404L311.436 165.504ZM344.388 232.343H311.404V199.348H344.388V232.343ZM378.179 232.343H345.194V199.348H378.179V232.343ZM411.969 232.343H379.017V199.348H412.001L411.969 232.343ZM411.969 198.552H379.017V165.504H412.001L411.969 198.552ZM379.017 164.709V131.714H412.001V164.709H379.017Z" fill="#E6E6E6"/>
<path d="M214.572 166.056C210.129 150.158 211.897 133.166 219.517 118.523C227.137 103.88 240.039 92.6813 255.609 87.1976L259.609 99.865C247.414 104.303 237.329 113.155 231.347 124.671C225.366 136.187 223.922 149.528 227.303 162.057L214.572 166.056Z" fill="#00ACFF"/>
<path d="M247.028 206.074C242.027 203.492 237.39 200.26 233.236 196.462C225.355 189.238 219.376 180.183 215.826 170.098L228.494 166.099C231.454 174.303 236.442 181.626 242.992 187.386C249.542 193.146 257.442 197.156 265.958 199.044C274.474 200.931 283.329 200.635 291.699 198.182C300.07 195.729 307.684 191.2 313.835 185.015L323.627 193.99C313.833 203.936 301.106 210.477 287.318 212.652C273.53 214.827 259.408 212.521 247.028 206.074Z" fill="#00ACFF"/>
<path opacity="0.7" d="M247.028 206.074C242.027 203.492 237.39 200.26 233.236 196.462C225.355 189.238 219.376 180.183 215.826 170.098L228.494 166.099C231.454 174.303 236.442 181.626 242.992 187.386C249.542 193.146 257.442 197.156 265.958 199.044C274.474 200.931 283.329 200.635 291.699 198.182C300.07 195.729 307.684 191.2 313.835 185.015L323.627 193.99C313.833 203.936 301.106 210.477 287.318 212.652C273.53 214.827 259.408 212.521 247.028 206.074Z" fill="white"/>
<path d="M316.752 181.885C323.86 173.459 328.091 162.983 328.828 151.984C329.564 140.985 326.767 130.038 320.846 120.74C314.924 111.442 306.187 104.278 295.908 100.294C285.63 96.3102 274.347 95.7137 263.706 98.592L259.706 85.8609C275.963 81.3079 293.353 83.254 308.202 91.2879C323.05 99.3219 334.193 112.814 339.276 128.913C342.58 139.458 343.151 150.67 340.936 161.497C338.72 172.323 333.79 182.409 326.608 190.808L316.752 181.885Z" fill="#00ACFF"/>
<path opacity="0.3" d="M316.752 181.885C323.86 173.459 328.091 162.983 328.828 151.984C329.564 140.985 326.767 130.038 320.846 120.74C314.924 111.442 306.187 104.278 295.908 100.294C285.63 96.3102 274.347 95.7137 263.706 98.592L259.706 85.8609C275.963 81.3079 293.353 83.254 308.202 91.2879C323.05 99.3219 334.193 112.814 339.276 128.913C342.58 139.458 343.151 150.67 340.936 161.497C338.72 172.323 333.79 182.409 326.608 190.808L316.752 181.885Z" fill="black"/>
<path d="M289.318 132.828C287.819 131.328 286.039 130.138 284.08 129.326C282.121 128.515 280.021 128.096 277.901 128.096C275.78 128.095 273.68 128.513 271.721 129.324C269.761 130.135 267.981 131.324 266.481 132.823C264.981 134.322 263.792 136.102 262.98 138.061C262.168 140.02 261.75 142.119 261.749 144.24C261.749 146.36 262.166 148.46 262.977 150.42C263.788 152.379 264.977 154.159 266.476 155.659L277.892 167.075L289.318 155.659C292.345 152.631 294.045 148.525 294.045 144.244C294.045 139.962 292.345 135.856 289.318 132.828Z" fill="#00ACFF"/>
<path opacity="0.3" d="M289.318 132.828C287.819 131.328 286.039 130.138 284.08 129.326C282.121 128.515 280.021 128.096 277.901 128.096C275.78 128.095 273.68 128.513 271.721 129.324C269.761 130.135 267.981 131.324 266.481 132.823C264.981 134.322 263.792 136.102 262.98 138.061C262.168 140.02 261.75 142.119 261.749 144.24C261.749 146.36 262.166 148.46 262.977 150.42C263.788 152.379 264.977 154.159 266.476 155.659L277.892 167.075L289.318 155.659C292.345 152.631 294.045 148.525 294.045 144.244C294.045 139.962 292.345 135.856 289.318 132.828Z" fill="black"/>
<path d="M278.537 170.459H277.264V175.552H278.537V170.459Z" fill="#00ACFF"/>
<path opacity="0.3" d="M278.537 170.459H277.264V175.552H278.537V170.459Z" fill="black"/>
<path d="M278.537 179.488H277.264V184.58H278.537V179.488Z" fill="#00ACFF"/>
<path opacity="0.3" d="M278.537 179.488H277.264V184.58H278.537V179.488Z" fill="black"/>
<path d="M233.83 220.694H190.618V377.159H233.83V220.694Z" fill="#00ACFF"/>
<path opacity="0.7" d="M233.83 220.694H190.618V377.159H233.83V220.694Z" fill="white"/>
<path d="M254.571 220.694H233.83V377.159H254.571V220.694Z" fill="#00ACFF"/>
<path opacity="0.5" d="M254.571 220.694H233.83V377.159H254.571V220.694Z" fill="white"/>
<path d="M313.725 278.281H312.622V302.64H313.725V278.281Z" fill="#263238"/>
<path d="M313.725 263.958H312.622V273.751H313.725V263.958Z" fill="#263238"/>
<path d="M344.422 317.747H301.211V377.159H344.422V317.747Z" fill="#00ACFF"/>
<path opacity="0.5" d="M344.422 317.747H301.211V377.159H344.422V317.747Z" fill="black"/>
<path d="M365.164 317.747H344.423V377.159H365.164V317.747Z" fill="#00ACFF"/>
<path opacity="0.6" d="M365.164 317.747H344.423V377.159H365.164V317.747Z" fill="black"/>
<path d="M289.125 187.614H245.913V377.159H289.125V187.614Z" fill="#00ACFF"/>
<path opacity="0.7" d="M289.125 187.614H245.913V377.159H289.125V187.614Z" fill="black"/>
<path d="M309.866 187.614H289.125V377.159H309.866V187.614Z" fill="#00ACFF"/>
<path opacity="0.8" d="M309.866 187.614H289.125V377.159H309.866V187.614Z" fill="black"/>
<path d="M373.96 143.893C372.475 155.627 370.608 167.393 368.942 179.031C368.736 180.732 368.427 182.418 368.019 184.081C367.542 185.785 366.932 187.449 366.195 189.057C364.787 192.082 363.028 194.931 360.954 197.544C358.977 200.056 356.798 202.401 354.439 204.557C353.294 205.618 352.074 206.679 350.843 207.602C349.612 208.525 348.392 209.48 346.981 210.403L343.215 205.703C344.095 204.727 345.093 203.581 345.994 202.52C346.896 201.459 347.787 200.313 348.657 199.189C350.358 196.99 351.914 194.683 353.315 192.282C354.665 190.03 355.777 187.645 356.636 185.163C357.03 184.015 357.332 182.838 357.537 181.641C357.723 180.386 357.844 179.122 357.898 177.854C358.291 171.828 358.885 165.865 359.543 159.913C360.2 153.962 360.985 148.084 361.919 142.164L373.96 143.893Z" fill="#E58A7B"/>
<path d="M376.602 139.862C379.307 147.044 365.61 168.189 365.61 168.189L349.559 159.478C351.974 152.898 355.093 146.599 358.863 140.689C364.507 132.223 373.642 131.979 376.602 139.862Z" fill="#00ACFF"/>
<path opacity="0.2" d="M376.602 139.862C379.307 147.044 365.61 168.189 365.61 168.189L349.559 159.478C351.974 152.898 355.093 146.599 358.863 140.689C364.507 132.223 373.642 131.979 376.602 139.862Z" fill="black"/>
<path d="M367.076 134.366C367.076 134.366 357.601 158.609 366.598 203.74H409.534C409.831 197.152 405.683 165.006 412.038 133.963C407.294 133.043 402.495 132.434 397.673 132.138C391.595 131.788 385.502 131.788 379.425 132.138C375.257 132.558 371.128 133.303 367.076 134.366Z" fill="#00ACFF"/>
<path opacity="0.2" d="M367.076 134.366C367.076 134.366 357.601 158.609 366.598 203.74H409.534C409.831 197.152 405.683 165.006 412.038 133.963C407.294 133.043 402.495 132.434 397.673 132.138C391.595 131.788 385.502 131.788 379.425 132.138C375.257 132.558 371.128 133.303 367.076 134.366Z" fill="black"/>
<path d="M372.771 373.361H364.75L362.607 354.774H370.639L372.771 373.361Z" fill="#E58A7B"/>
<path d="M429.255 373.361H421.234L414.975 354.774H423.006L429.255 373.361Z" fill="#E58A7B"/>
<path d="M420.164 372.385H429.946C430.106 372.384 430.261 372.439 430.384 372.54C430.508 372.64 430.593 372.781 430.625 372.937L432.217 380.077C432.251 380.25 432.247 380.429 432.204 380.601C432.16 380.772 432.079 380.932 431.967 381.068C431.854 381.205 431.712 381.314 431.551 381.388C431.391 381.463 431.216 381.5 431.039 381.498C427.856 381.445 425.596 381.265 421.628 381.265C419.188 381.265 414.202 381.52 410.796 381.52C407.391 381.52 406.988 378.188 408.367 377.881C414.552 376.533 416.854 374.698 418.859 372.884C419.218 372.561 419.683 372.384 420.164 372.385Z" fill="#263238"/>
<path d="M364.806 372.385H373.57C373.73 372.386 373.885 372.441 374.011 372.541C374.136 372.641 374.223 372.781 374.259 372.937L375.84 380.077C375.879 380.249 375.878 380.428 375.837 380.599C375.797 380.771 375.718 380.931 375.607 381.068C375.495 381.205 375.354 381.315 375.195 381.389C375.035 381.464 374.86 381.501 374.684 381.498C371.501 381.445 366.95 381.265 363.014 381.265C358.367 381.265 354.356 381.52 348.903 381.52C345.604 381.52 344.66 378.188 346.071 377.881C352.351 376.512 357.475 376.364 362.907 373.011C363.472 372.633 364.128 372.417 364.806 372.385Z" fill="#263238"/>
<path d="M346.132 202.637L339.405 208.26L348.243 213.448C349.545 212.442 350.492 211.046 350.945 209.463C351.397 207.881 351.331 206.195 350.757 204.653L346.132 202.637Z" fill="#E58A7B"/>
<path d="M362.62 354.784L363.713 364.364H371.744L370.641 354.784H362.62Z" fill="#CF6F64"/>
<path d="M423.006 354.784H414.975L418.2 364.364H426.231L423.006 354.784Z" fill="#CF6F64"/>
<path opacity="0.2" d="M403.295 148.795C404.696 141.708 407.422 142.939 410.011 146.429C408.905 155.823 408.395 165.277 408.483 174.735C406.722 171.732 400.951 160.667 403.295 148.795Z" fill="black"/>
<path d="M395.858 111.599C394.712 117.466 393.567 128.224 397.672 132.138C397.672 132.138 396.07 138.101 385.154 138.101C373.154 138.101 379.425 132.149 379.425 132.149C385.97 130.579 385.79 125.72 384.655 121.158L395.858 111.599Z" fill="#E58A7B"/>
<path d="M391.296 115.503L384.665 121.158C384.948 122.218 385.136 123.301 385.227 124.394C387.731 124.033 391.169 121.285 391.434 118.665C391.578 117.611 391.531 116.54 391.296 115.503Z" fill="#CF6F64"/>
<path d="M377.195 93.5314C373.249 95.2077 371.106 106.263 376.134 108.819C381.163 111.376 384.675 90.3698 377.195 93.5314Z" fill="#263238"/>
<path d="M396.556 102.761C396.068 110.708 396.185 115.386 392.174 119.471C386.138 125.603 376.314 121.964 374.425 114.028C372.717 106.888 373.799 95.0803 381.586 91.9187C383.299 91.2138 385.163 90.9584 387.003 91.1768C388.842 91.3952 390.594 92.0801 392.094 93.1665C393.594 94.2529 394.791 95.7047 395.572 97.384C396.353 99.0633 396.692 100.914 396.556 102.761Z" fill="#E58A7B"/>
<path d="M372.041 88.545C376.847 81.2564 377.6 84.7681 377.526 88.2373C381.769 84.227 389.61 79.1134 393.44 83.7814C393.893 84.2631 394.188 84.8721 394.285 85.5266C394.382 86.181 394.275 86.8494 393.981 87.4416C398.914 86.1261 403.89 85.7548 402.988 91.0806C402.192 95.7911 398.829 97.5204 394.119 97.5522C385.674 98.7193 365.23 98.836 372.041 88.545Z" fill="#263238"/>
<path d="M395.995 110.549C391.752 112.278 383.211 96.6929 396.059 94.8575C408.907 93.0221 402.796 107.758 395.995 110.549Z" fill="#263238"/>
<path d="M400.153 111.525C399.079 113.215 397.384 114.416 395.432 114.867C392.844 115.439 391.687 113.084 392.536 110.708C393.3 108.586 395.56 105.711 398.106 106.199C398.66 106.317 399.176 106.572 399.606 106.94C400.037 107.308 400.369 107.778 400.572 108.307C400.776 108.836 400.844 109.407 400.771 109.969C400.698 110.531 400.485 111.065 400.153 111.525Z" fill="#E58A7B"/>
<path d="M404.346 97.2659C403.756 96.6088 403.011 96.1094 402.179 95.813C401.347 95.5166 400.455 95.4325 399.582 95.5684C399.582 95.5684 403.73 92.3007 404.346 97.2659Z" fill="#263238"/>
<path d="M366.598 203.698C366.598 203.698 344.011 261.094 344.839 285.58C345.74 311.042 360.752 362.508 360.752 362.508H374.354C374.354 362.508 368.784 312.517 369.388 287.522C370.046 260.256 394.851 203.709 394.851 203.709L366.598 203.698Z" fill="#00ACFF"/>
<path opacity="0.2" d="M384.634 222.699L385.939 225.659C381.178 237.925 377.042 250.425 373.547 263.11C373.176 248.639 376.168 232.682 384.634 222.699Z" fill="black"/>
<path d="M381.832 203.698C381.832 203.698 377.259 262.388 382.256 285.389C387.731 310.554 414.424 362.487 414.424 362.487H429.128C429.128 362.487 409.459 312.623 406.329 287.67C402.944 260.627 409.512 203.719 409.512 203.719L381.832 203.698Z" fill="#00ACFF"/>
<path d="M384.504 105.032C384.504 105.679 384.154 106.209 383.73 106.209C383.305 106.209 382.966 105.679 382.966 105.032C382.966 104.385 383.305 103.865 383.73 103.865C384.154 103.865 384.504 104.332 384.504 105.032Z" fill="#263238"/>
<path d="M377.186 105.032C377.186 105.679 376.836 106.209 376.422 106.209C376.008 106.209 375.647 105.679 375.647 105.032C375.647 104.385 375.998 103.865 376.422 103.865C376.846 103.865 377.186 104.332 377.186 105.032Z" fill="#263238"/>
<path d="M379.51 105.308C378.738 107.283 377.7 109.142 376.423 110.835C376.864 111.152 377.368 111.369 377.902 111.469C378.435 111.57 378.984 111.553 379.51 111.419V105.308Z" fill="#DF5753"/>
<path d="M381.399 113.212C381.348 113.212 381.3 113.191 381.264 113.156C381.228 113.12 381.208 113.071 381.208 113.021C381.208 112.97 381.228 112.921 381.264 112.886C381.3 112.85 381.348 112.83 381.399 112.83C382.204 112.847 383.002 112.675 383.729 112.327C384.455 111.978 385.089 111.464 385.579 110.824C385.593 110.804 385.611 110.786 385.632 110.772C385.653 110.758 385.676 110.748 385.701 110.743C385.725 110.738 385.751 110.738 385.775 110.743C385.8 110.748 385.823 110.757 385.844 110.771C385.884 110.799 385.911 110.841 385.921 110.888C385.931 110.936 385.922 110.985 385.897 111.026C385.38 111.727 384.7 112.292 383.917 112.672C383.134 113.053 382.27 113.238 381.399 113.212Z" fill="#263238"/>
<path d="M386.703 102.623C386.645 102.622 386.589 102.608 386.538 102.582C386.486 102.557 386.441 102.52 386.405 102.475C386.128 102.085 385.763 101.766 385.339 101.545C384.914 101.323 384.444 101.206 383.965 101.202C383.915 101.206 383.864 101.2 383.816 101.184C383.768 101.168 383.724 101.142 383.686 101.109C383.648 101.075 383.618 101.034 383.596 100.988C383.575 100.942 383.563 100.892 383.562 100.841C383.556 100.742 383.59 100.644 383.655 100.568C383.721 100.493 383.813 100.446 383.912 100.438C384.516 100.435 385.112 100.575 385.651 100.848C386.19 101.121 386.656 101.519 387.01 102.008C387.07 102.09 387.096 102.193 387.083 102.294C387.069 102.395 387.016 102.486 386.936 102.549C386.866 102.594 386.786 102.62 386.703 102.623Z" fill="#263238"/>
<path d="M373.982 102.464C373.926 102.474 373.869 102.474 373.812 102.464C373.767 102.443 373.726 102.413 373.693 102.375C373.66 102.337 373.635 102.294 373.619 102.246C373.603 102.198 373.597 102.148 373.601 102.098C373.605 102.048 373.619 101.999 373.643 101.955C373.893 101.408 374.272 100.93 374.747 100.561C375.221 100.192 375.778 99.942 376.369 99.8332C376.463 99.8317 376.555 99.8649 376.626 99.9265C376.697 99.9881 376.743 100.074 376.754 100.167C376.766 100.26 376.743 100.355 376.69 100.432C376.636 100.51 376.556 100.565 376.465 100.586C376.001 100.687 375.568 100.895 375.2 101.194C374.831 101.492 374.538 101.873 374.343 102.305C374.304 102.363 374.249 102.408 374.185 102.437C374.122 102.465 374.051 102.474 373.982 102.464Z" fill="#263238"/>
<path d="M415.094 140.201C415.783 141.687 416.367 143.013 416.919 144.445C417.47 145.877 417.98 147.235 418.542 148.689C419.603 151.511 420.483 154.375 421.29 157.293C422.096 160.211 422.764 163.192 423.316 166.226L423.698 168.507L423.974 170.841C424.08 171.615 424.122 172.411 424.186 173.207L424.26 174.395V174.692V175.191C424.26 175.562 424.26 175.902 424.26 176.252C424.05 178.341 423.445 180.372 422.478 182.235C421.724 183.734 420.87 185.18 419.921 186.564C418.163 189.094 416.239 191.504 414.16 193.778C410.161 198.182 405.823 202.265 401.185 205.99L396.941 201.746C400.411 197.311 403.869 192.728 407.02 188.177C408.554 185.961 409.971 183.666 411.264 181.302C411.856 180.241 412.37 179.138 412.802 178.002C413.117 177.277 413.297 176.5 413.333 175.711V175.467L413.184 174.512C413.089 173.865 413.004 173.228 412.855 172.581L412.473 170.639L412.017 168.687C411.37 166.077 410.638 163.457 409.789 160.847C408.94 158.237 408.039 155.638 407.073 153.039C406.108 150.439 405.047 147.819 404.06 145.421L415.094 140.201Z" fill="#E58A7B"/>
<path d="M417.5 373.839C416.955 373.88 416.412 373.734 415.961 373.425C415.81 373.297 415.694 373.132 415.625 372.946C415.556 372.76 415.537 372.56 415.569 372.364C415.568 372.255 415.597 372.148 415.653 372.054C415.709 371.96 415.79 371.884 415.887 371.833C416.789 371.377 419.367 372.969 419.664 373.149C419.695 373.169 419.72 373.198 419.735 373.232C419.75 373.266 419.755 373.303 419.749 373.34C419.742 373.378 419.724 373.413 419.698 373.441C419.671 373.469 419.638 373.49 419.6 373.499C418.914 373.688 418.21 373.802 417.5 373.839ZM416.311 372.173C416.227 372.166 416.142 372.185 416.067 372.226C416.014 372.226 415.951 372.3 415.94 372.449C415.927 372.576 415.944 372.705 415.99 372.825C416.036 372.945 416.11 373.052 416.205 373.138C417.102 373.542 418.117 373.591 419.049 373.276C418.216 372.736 417.286 372.361 416.311 372.173Z" fill="#00ACFF"/>
<path d="M419.56 373.552H419.475C418.637 373.096 417.035 371.345 417.205 370.444C417.234 370.304 417.31 370.179 417.42 370.088C417.529 369.997 417.667 369.947 417.81 369.945C417.954 369.928 418.099 369.941 418.238 369.983C418.377 370.025 418.505 370.095 418.616 370.189C419.55 370.953 419.741 373.266 419.751 373.372C419.752 373.405 419.745 373.438 419.73 373.467C419.715 373.497 419.693 373.522 419.666 373.541C419.633 373.556 419.596 373.559 419.56 373.552ZM417.948 370.263H417.852C417.608 370.263 417.587 370.401 417.576 370.454C417.481 370.985 418.499 372.311 419.327 372.937C419.269 372.023 418.94 371.148 418.383 370.422C418.261 370.319 418.107 370.263 417.948 370.263Z" fill="#00ACFF"/>
<path d="M361.461 373.839C360.776 373.9 360.091 373.724 359.52 373.34C359.389 373.227 359.288 373.084 359.225 372.923C359.162 372.762 359.14 372.589 359.159 372.417C359.165 372.314 359.196 372.213 359.25 372.124C359.303 372.036 359.378 371.961 359.467 371.908C360.453 371.367 363.711 372.969 364.039 373.192C364.076 373.209 364.106 373.238 364.125 373.274C364.144 373.31 364.151 373.351 364.146 373.391C364.14 373.432 364.121 373.469 364.092 373.498C364.064 373.527 364.027 373.546 363.986 373.552C363.155 373.723 362.31 373.818 361.461 373.839ZM360.008 372.173C359.887 372.165 359.765 372.191 359.658 372.247C359.62 372.265 359.588 372.293 359.567 372.33C359.546 372.366 359.537 372.407 359.541 372.449C359.525 372.56 359.537 372.674 359.576 372.779C359.615 372.885 359.68 372.979 359.764 373.054C360.263 373.499 361.589 373.573 363.35 373.276C362.307 372.721 361.177 372.347 360.008 372.173Z" fill="#00ACFF"/>
<path d="M363.955 373.552C363.928 373.562 363.898 373.562 363.87 373.552C362.905 373.117 360.985 371.43 361.133 370.475C361.133 370.263 361.313 369.998 361.844 369.945C362.034 369.926 362.226 369.945 362.408 370.001C362.59 370.058 362.759 370.15 362.905 370.274C363.966 371.112 364.146 373.276 364.146 373.361C364.151 373.395 364.147 373.43 364.134 373.461C364.121 373.493 364.099 373.521 364.072 373.541C364.035 373.556 363.994 373.56 363.955 373.552ZM362.046 370.263H361.929C361.589 370.263 361.568 370.433 361.558 370.475C361.473 371.016 362.778 372.385 363.764 372.979C363.674 372.065 363.304 371.202 362.703 370.507C362.521 370.348 362.287 370.261 362.046 370.263Z" fill="#00ACFF"/>
<path d="M398.795 200.568L390.923 202.69L397.448 210.605C397.448 210.605 403.76 207.326 402.402 203.793L398.795 200.568Z" fill="#E58A7B"/>
<path d="M386.85 207.984L392.547 214.265L397.448 210.573L390.924 202.658L386.85 207.984Z" fill="#E58A7B"/>
<path d="M411.824 362.826H431.048V357.649L409.564 357.32L411.824 362.826Z" fill="#00ACFF"/>
<path opacity="0.4" d="M411.824 362.826H431.048V357.649L409.564 357.32L411.824 362.826Z" fill="black"/>
<path d="M357.664 362.826H376.888V357.596L355.404 357.32L357.664 362.826Z" fill="#00ACFF"/>
<path opacity="0.4" d="M357.664 362.826H376.888V357.596L355.404 357.32L357.664 362.826Z" fill="black"/>
<path d="M413.713 134.483C420.874 137.242 428.035 162.64 428.035 162.64L408.939 170.151C408.939 170.151 403.241 157.017 401.3 147.257C399.305 137.019 405.597 131.364 413.713 134.483Z" fill="#00ACFF"/>
<path opacity="0.2" d="M413.713 134.483C420.874 137.242 428.035 162.64 428.035 162.64L408.939 170.151C408.939 170.151 403.241 157.017 401.3 147.257C399.305 137.019 405.597 131.364 413.713 134.483Z" fill="black"/>
<path d="M336.298 174.788C334.264 181.88 334.468 189.427 336.882 196.399C339.09 202.888 343.119 208.604 348.488 212.864C355.641 218.527 364.677 221.262 373.769 220.516C382.86 219.77 391.33 215.599 397.464 208.847C403.598 202.094 406.938 193.264 406.809 184.143C406.681 175.021 403.093 166.289 396.771 159.712C392.428 155.19 386.968 151.896 380.942 150.164C375.37 148.552 369.492 148.305 363.804 149.445C358.117 150.584 352.787 153.076 348.266 156.71C347.442 157.373 346.656 158.082 345.91 158.831C341.357 163.211 338.041 168.715 336.298 174.788Z" fill="#00ACFF"/>
<path opacity="0.6" d="M336.298 174.788C334.264 181.88 334.468 189.427 336.882 196.399C339.09 202.888 343.119 208.604 348.488 212.864C355.641 218.527 364.677 221.262 373.769 220.516C382.86 219.77 391.33 215.599 397.464 208.847C403.598 202.094 406.938 193.264 406.809 184.143C406.681 175.021 403.093 166.289 396.771 159.712C392.428 155.19 386.968 151.896 380.942 150.164C375.37 148.552 369.492 148.305 363.804 149.445C358.117 150.584 352.787 153.076 348.266 156.71C347.442 157.373 346.656 158.082 345.91 158.831C341.357 163.211 338.041 168.715 336.298 174.788Z" fill="black"/>
<path d="M392.249 158.301L366.362 183.286L356.442 217.872C364.056 220.058 372.177 219.67 379.548 216.769C386.918 213.868 393.125 208.615 397.205 201.827C401.286 195.038 403.012 187.092 402.116 179.222C401.219 171.352 397.751 163.998 392.249 158.301Z" fill="#00ACFF"/>
<path opacity="0.9" d="M392.249 158.301L366.362 183.286L356.442 217.872C364.056 220.058 372.177 219.67 379.548 216.769C386.918 213.868 393.125 208.615 397.205 201.827C401.286 195.038 403.012 187.092 402.116 179.222C401.219 171.352 397.751 163.998 392.249 158.301Z" fill="white"/>
<g opacity="0.7">
<path d="M366.365 183.286L392.251 158.29C387.864 153.745 382.357 150.435 376.284 148.693C370.211 146.951 363.787 146.839 357.658 148.369C351.528 149.898 345.909 153.014 341.366 157.404C336.823 161.794 333.516 167.303 331.778 173.377L366.365 183.286Z" fill="#00ACFF"/>
<path opacity="0.44" d="M366.365 183.286L392.251 158.29C387.864 153.745 382.357 150.435 376.284 148.693C370.211 146.951 363.787 146.839 357.658 148.369C351.528 149.898 345.909 153.014 341.366 157.404C336.823 161.794 333.516 167.303 331.778 173.377L366.365 183.286Z" fill="white"/>
</g>
<path d="M338.855 213.034L346.653 215.495L348.213 213.48L339.375 208.292L338.855 213.034Z" fill="#E58A7B"/>
<path d="M366.364 183.286L331.789 173.377C329.163 182.548 330.286 192.387 334.911 200.73C339.537 209.074 347.286 215.24 356.455 217.872L366.364 183.286Z" fill="#00ACFF"/>
<path opacity="0.6" d="M366.364 183.286L331.789 173.377C329.163 182.548 330.286 192.387 334.911 200.73C339.537 209.074 347.286 215.24 356.455 217.872L366.364 183.286Z" fill="black"/>
<path d="M168.15 134.589C166.293 136.488 164.299 138.589 162.463 140.69C160.628 142.79 158.782 144.933 157.053 147.129C155.323 149.326 153.689 151.585 152.119 153.866L150.973 155.596L149.913 157.346C149.552 157.93 149.212 158.524 148.852 159.118L147.971 160.741C147.613 161.667 147.409 162.646 147.366 163.637C147.281 164.916 147.281 166.199 147.366 167.478C147.565 170.23 147.919 172.968 148.427 175.679C148.905 178.459 149.488 181.249 150.178 184.018C150.867 186.787 151.546 189.609 152.3 192.346L148.215 193.874C145.741 188.469 143.673 182.887 142.03 177.175C141.183 174.241 140.534 171.253 140.088 168.231C139.865 166.618 139.752 164.991 139.749 163.362C139.72 161.441 140.043 159.532 140.704 157.728C140.958 157.113 141.096 156.858 141.266 156.497L141.765 155.437C142.094 154.736 142.444 154.047 142.826 153.378L143.886 151.352L145.054 149.379C146.613 146.783 148.31 144.272 150.135 141.857C151.939 139.448 153.806 137.093 155.779 134.833C157.753 132.574 159.758 130.409 162.039 128.234L168.15 134.589Z" fill="#E58A7B"/>
<path d="M151.175 190.617L158.432 192.739L153.605 197.64C153.605 197.64 148.375 196.027 147.643 192.463L151.175 190.617Z" fill="#E58A7B"/>
<path d="M162.834 198.362L161.603 203.04L153.604 197.672L158.431 192.781L162.834 198.362Z" fill="#E58A7B"/>
<path d="M97.874 329.895L103.815 336.271L119.941 324.728L113.989 318.352L97.874 329.895Z" fill="#E58A7B"/>
<path d="M176.71 353.257L175.288 364.227L166.79 362.805L168.106 352.62L176.71 353.257Z" fill="#CF6F64"/>
<path d="M113.99 318.352L119.931 324.739L113.258 329.513L107.104 323.275L113.99 318.352Z" fill="#CF6F64"/>
<path d="M191.596 178.628C191.596 178.628 174.791 234.91 166.579 267.354C157.922 301.547 116.578 329.428 116.578 329.428L107.751 320.655C107.751 320.655 135.388 297.314 143.822 265.412C160.861 200.621 152.671 186.904 166.25 173.727L191.596 178.628Z" fill="#00ACFF"/>
<path opacity="0.6" d="M191.596 178.628C191.596 178.628 174.791 234.91 166.579 267.354C157.922 301.547 116.578 329.428 116.578 329.428L107.751 320.655C107.751 320.655 135.388 297.314 143.822 265.412C160.861 200.621 152.671 186.904 166.25 173.727L191.596 178.628Z" fill="black"/>
<path d="M106.414 335.253L101.459 326.766C101.378 326.618 101.246 326.506 101.088 326.449C100.929 326.393 100.756 326.396 100.6 326.458L93.5341 329.301C93.3587 329.384 93.2026 329.503 93.0761 329.651C92.9495 329.798 92.8552 329.97 92.7992 330.156C92.7433 330.342 92.7269 330.538 92.7511 330.73C92.7753 330.923 92.8397 331.108 92.9399 331.274C94.7223 334.192 95.7196 335.518 97.9051 339.242C99.2524 341.534 100.982 345.013 102.828 348.175C104.674 351.337 107.825 349.724 107.326 348.249C105.098 341.618 106.265 339.698 106.7 336.749C106.779 336.232 106.678 335.704 106.414 335.253Z" fill="#263238"/>
<path d="M117.331 330.68L106.318 319.721L109.31 316.4L122.72 327.816L117.331 330.68Z" fill="#F5F5F5"/>
<path opacity="0.3" d="M183.7 190.617C172.677 199.104 171.934 231.526 172.189 246.167C177.801 225.702 184.432 202.923 188.305 189.757C187.244 188.845 185.727 189.047 183.7 190.617Z" fill="black"/>
<path d="M108.196 339.878C108.091 339.876 107.988 339.858 107.888 339.825C106.827 339.507 106.095 337.587 105.766 336.473C105.754 336.433 105.754 336.391 105.765 336.352C105.776 336.312 105.799 336.277 105.83 336.25C105.862 336.227 105.901 336.214 105.941 336.214C105.981 336.214 106.02 336.227 106.053 336.25C106.371 336.409 109.161 337.863 109.235 338.966C109.247 339.085 109.228 339.205 109.179 339.315C109.131 339.424 109.055 339.52 108.96 339.592C108.745 339.771 108.475 339.872 108.196 339.878ZM106.297 336.833C106.817 338.308 107.443 339.263 108.005 339.443C108.13 339.475 108.261 339.474 108.385 339.441C108.51 339.407 108.623 339.342 108.716 339.252C108.761 339.226 108.797 339.186 108.819 339.139C108.842 339.092 108.85 339.039 108.843 338.987C108.779 338.435 107.421 337.449 106.297 336.833Z" fill="#00ACFF"/>
<path d="M108.482 337.194C107.564 337.192 106.658 336.985 105.829 336.59C105.801 336.569 105.778 336.542 105.762 336.51C105.746 336.479 105.737 336.444 105.737 336.409C105.737 336.374 105.746 336.339 105.762 336.308C105.778 336.277 105.801 336.249 105.829 336.229C105.925 336.229 108.015 334.966 109.203 335.359C109.357 335.403 109.499 335.481 109.618 335.587C109.738 335.694 109.832 335.826 109.893 335.974C109.974 336.116 110.005 336.282 109.98 336.444C109.955 336.606 109.876 336.755 109.755 336.865C109.38 337.117 108.931 337.233 108.482 337.194ZM106.36 336.399C107.336 336.791 109.023 336.95 109.468 336.558C109.543 336.494 109.606 336.388 109.468 336.144C109.429 336.048 109.368 335.962 109.291 335.892C109.214 335.822 109.122 335.771 109.023 335.741C108.089 335.688 107.161 335.917 106.36 336.399Z" fill="#00ACFF"/>
<path d="M165.559 372.364L174.163 373.001L176.709 353.246L168.115 352.61L165.559 372.364Z" fill="#E58A7B"/>
<path d="M200.188 180.358C200.188 180.358 202.31 248.458 197.525 274.112C192.518 300.794 177.272 361.479 177.272 361.479L164.87 359.877C164.87 359.877 172.721 298.566 176.042 272.064C179.681 243.164 174.917 175.467 174.917 175.467L200.188 180.358Z" fill="#00ACFF"/>
<path opacity="0.6" d="M200.188 180.358C200.188 180.358 202.31 248.458 197.525 274.112C192.518 300.794 177.272 361.479 177.272 361.479L164.87 359.877C164.87 359.877 172.721 298.566 176.042 272.064C179.681 243.164 174.917 175.467 174.917 175.467L200.188 180.358Z" fill="black"/>
<path d="M209.739 99.3452C209.622 100.035 209.898 100.65 210.343 100.746C210.789 100.841 211.245 100.342 211.404 99.6847C211.564 99.0269 211.245 98.3797 210.8 98.2949C210.354 98.21 209.855 98.6662 209.739 99.3452Z" fill="#263238"/>
<path d="M210.542 98.2737L212.271 98.1146C212.271 98.1146 211.21 99.2392 210.542 98.2737Z" fill="#263238"/>
<path d="M210.204 100.12C210.559 101.8 211.141 103.423 211.933 104.947C211.537 105.128 211.106 105.222 210.671 105.222C210.235 105.222 209.804 105.128 209.408 104.947L210.204 100.12Z" fill="#DF5753"/>
<path d="M211.393 96.5444C211.314 96.5446 211.236 96.5216 211.17 96.4782C211.104 96.4348 211.053 96.373 211.021 96.3004C210.821 95.8192 210.513 95.3903 210.122 95.0464C209.73 94.7025 209.265 94.4528 208.762 94.3165C208.709 94.3075 208.659 94.2883 208.615 94.2599C208.57 94.2316 208.531 94.1947 208.5 94.1513C208.47 94.108 208.448 94.059 208.436 94.0072C208.425 93.9555 208.424 93.9019 208.433 93.8497C208.453 93.7432 208.515 93.6491 208.604 93.5876C208.694 93.5261 208.803 93.5021 208.91 93.5208C209.545 93.6771 210.134 93.9803 210.629 94.406C211.125 94.8317 211.514 95.368 211.764 95.9715C211.808 96.0702 211.811 96.1819 211.773 96.283C211.736 96.3841 211.66 96.4665 211.563 96.5126L211.393 96.5444Z" fill="#263238"/>
<path d="M187.968 105.032C188.127 110.23 187.596 119.609 183.522 122.272C183.522 122.272 184.053 127.576 193.421 129.433C203.722 131.428 199.192 125.306 199.192 125.306C193.782 122.877 194.62 118.76 196.243 115.058L187.968 105.032Z" fill="#E58A7B"/>
<path d="M214.489 132.849C216.611 134.462 218.945 136.17 221.247 137.73C223.55 139.289 225.905 140.912 228.303 142.323C230.7 143.734 233.13 145.124 235.57 146.429C238.001 147.686 240.498 148.812 243.049 149.803C243.272 149.888 243.198 149.803 243.251 149.877H243.389C243.526 149.897 243.666 149.897 243.803 149.877C244.227 149.879 244.65 149.837 245.065 149.75C246.191 149.475 247.284 149.076 248.322 148.562C250.725 147.342 253.021 145.922 255.186 144.318C257.457 142.716 259.674 140.965 261.849 139.141C264.024 137.316 266.188 135.417 268.268 133.528L271.45 136.446C267.812 141.187 263.75 145.587 259.313 149.591C256.987 151.67 254.468 153.525 251.791 155.129C250.285 156.013 248.683 156.725 247.017 157.251C246.034 157.545 245.019 157.716 243.994 157.76C243.406 157.792 242.816 157.767 242.233 157.686C241.918 157.649 241.606 157.592 241.299 157.516C241.023 157.442 240.588 157.325 240.471 157.272C234.693 155.365 229.131 152.855 223.879 149.782C221.29 148.275 218.733 146.716 216.25 145.039C213.768 143.363 211.391 141.655 208.962 139.671L214.489 132.849Z" fill="#E58A7B"/>
<path d="M267.62 134.335L270.145 127.831L275.45 133.136C275.45 133.136 272.935 137.974 269.328 137.984L267.62 134.335Z" fill="#E58A7B"/>
<path d="M275.376 125.953L280.416 127.534L275.493 133.125L270.167 127.831L275.376 125.953Z" fill="#E58A7B"/>
<path d="M174.694 371.77H165.029C164.86 371.768 164.697 371.827 164.568 371.936C164.439 372.045 164.354 372.197 164.329 372.364L163.024 380.013C162.998 380.205 163.014 380.4 163.07 380.585C163.126 380.769 163.221 380.94 163.349 381.085C163.476 381.23 163.634 381.346 163.81 381.424C163.987 381.503 164.178 381.543 164.371 381.541C167.745 381.488 169.368 381.287 173.622 381.287C176.232 381.287 181.643 381.562 185.293 381.562C188.942 381.562 189.186 377.987 187.69 377.658C180.985 376.215 178.386 374.21 176.158 372.301C175.752 371.95 175.231 371.761 174.694 371.77Z" fill="#263238"/>
<path d="M187.118 93.0434C186.259 101.531 185.707 105.064 189.24 110.188C194.545 117.88 205.154 117.402 208.581 109.435C211.626 102.273 212.538 89.6272 204.846 84.7045C203.211 83.5938 201.314 82.9281 199.343 82.7732C197.372 82.6182 195.395 82.9793 193.606 83.8208C191.816 84.6624 190.277 85.9554 189.14 87.5725C188.002 89.1897 187.306 91.0752 187.118 93.0434Z" fill="#E58A7B"/>
<path d="M188.051 111.504C184.019 109.859 180.253 103.366 180.402 93.2132C180.55 83.0601 188.115 77.172 201.62 81.4475C215.126 85.7231 201.228 116.893 188.051 111.504Z" fill="#263238"/>
<path d="M199.489 82.3811C203.468 80.8216 212.273 82.7525 212.273 91.0383L203.712 97.9874L199.489 82.3811Z" fill="#263238"/>
<path d="M198.375 82.3069C203.68 81.9992 205.738 82.0204 210.544 83.3678C207.382 79.5697 201.462 80.8216 198.375 82.3069Z" fill="#263238"/>
<path d="M202.971 97.4568C202.806 99.0326 203.128 100.621 203.894 102.008C204.955 103.96 206.557 103.695 207.151 102.114C207.692 100.693 207.787 97.9661 206.302 96.502C204.817 95.0379 203.225 95.7063 202.971 97.4568Z" fill="#E58A7B"/>
<path d="M181.24 85.7124C184.317 87.6008 194.778 86.0413 197.037 82.0204C199.297 77.9995 191.489 71.2732 184.412 71.5172C177.336 71.7612 174.387 81.4899 181.24 85.7124Z" fill="#00ACFF"/>
<path d="M179.915 362.222L162.229 359.941L162.452 355.739L181.687 356.578L179.915 362.222Z" fill="#F5F5F5"/>
<path d="M177.899 373.276C176.99 373.26 176.084 373.157 175.194 372.969C175.153 372.962 175.114 372.942 175.086 372.911C175.057 372.88 175.039 372.841 175.035 372.799C175.03 372.757 175.037 372.715 175.056 372.677C175.075 372.639 175.104 372.608 175.141 372.587C175.534 372.385 179.013 370.624 180.053 371.218C180.151 371.271 180.233 371.349 180.291 371.444C180.349 371.539 180.38 371.648 180.382 371.759C180.403 371.943 180.378 372.13 180.31 372.302C180.241 372.474 180.131 372.627 179.99 372.746C179.376 373.161 178.637 373.348 177.899 373.276ZM175.873 372.682C177.772 373.001 179.183 372.916 179.724 372.449C179.816 372.367 179.887 372.265 179.931 372.151C179.975 372.036 179.992 371.913 179.979 371.791C179.979 371.746 179.968 371.702 179.945 371.663C179.923 371.623 179.891 371.591 179.852 371.568C179.289 371.25 177.305 372.003 175.873 372.682Z" fill="#00ACFF"/>
<path d="M175.233 372.969C175.191 372.978 175.147 372.978 175.105 372.969C175.078 372.946 175.057 372.916 175.044 372.883C175.031 372.849 175.026 372.813 175.031 372.778C175.031 372.629 175.445 369.107 177.365 369.107H177.535C178.087 369.16 178.246 369.446 178.288 369.669C178.447 370.645 176.357 372.512 175.318 372.979L175.233 372.969ZM177.355 369.489C176.113 369.489 175.625 371.526 175.466 372.406C176.527 371.759 177.959 370.285 177.864 369.712C177.864 369.712 177.864 369.531 177.471 369.489H177.355Z" fill="#00ACFF"/>
<path d="M168.625 121.306C162.652 121.582 156.955 131.481 156.955 131.481L164.838 147.586C164.838 147.586 175.521 138.684 175.659 129.932C175.776 124.245 174.492 121.041 168.625 121.306Z" fill="#00ACFF"/>
<path opacity="0.8" d="M168.625 121.306C162.652 121.582 156.955 131.481 156.955 131.481L164.838 147.586C164.838 147.586 175.521 138.684 175.659 129.932C175.776 124.245 174.492 121.041 168.625 121.306Z" fill="white"/>
<path d="M166.209 173.706L200.71 180.389C217.006 132.393 213.113 130.844 213.113 130.844C210.578 129.476 207.963 128.26 205.283 127.205L204.805 127.025C202.609 126.229 202.143 126.102 199.183 125.242C194.101 124.044 189.369 123.068 183.513 122.219L182.399 122.06C181.338 121.932 180.277 121.816 179.269 121.72C178.59 121.646 177.9 121.604 177.253 121.55L175.025 121.434C171.248 121.243 168.554 121.306 168.554 121.306C170.527 151.256 169.084 159.86 166.209 173.706Z" fill="#00ACFF"/>
<path opacity="0.6" d="M166.209 173.706L200.71 180.389C217.006 132.393 213.113 130.844 213.113 130.844C210.578 129.476 207.963 128.26 205.283 127.205L204.805 127.025C202.609 126.229 202.143 126.102 199.183 125.242C194.101 124.044 189.369 123.068 183.513 122.219L182.399 122.06C181.338 121.932 180.277 121.816 179.269 121.72C178.59 121.646 177.9 121.604 177.253 121.55L175.025 121.434C171.248 121.243 168.554 121.306 168.554 121.306C170.527 151.256 169.084 159.86 166.209 173.706Z" fill="white"/>
<path opacity="0.2" d="M204.697 142.387C206.066 145.082 207.689 148.657 209.864 151.129C210.49 148.859 211.01 146.885 211.455 145.05L204.697 142.387Z" fill="#00ACFF"/>
<path d="M177.038 149.591C185.643 142.79 187.457 136.467 186.258 130.94C185.059 125.412 183.68 115.768 184.666 112.543C185.653 109.318 189.091 102.624 188.39 96.9052C187.69 91.1868 186.056 83.2404 187.626 79.803C189.197 76.3656 194.183 74.3286 190.141 69.4484C188.178 67.0825 179.861 66.7218 177.686 73.3208C175.511 79.9197 166.578 82.7736 163.066 83.4314C159.554 84.0892 153.369 88.0358 152.298 94.465C151.226 100.894 146.908 103.43 140.978 106.729C135.047 110.029 126.517 122.962 129.912 134.441C134.495 150.153 164.222 159.754 177.038 149.591Z" fill="#263238"/>
<path d="M202.905 127.937C205.578 125.815 217.09 132.796 220.612 135.714L218.554 150.843C218.554 150.843 202.109 144.031 200.985 139.374C199.775 134.526 200.783 129.56 202.905 127.937Z" fill="#00ACFF"/>
<path opacity="0.6" d="M202.905 127.937C205.578 125.815 217.09 132.796 220.612 135.714L218.554 150.843C218.554 150.843 202.109 144.031 200.985 139.374C199.775 134.526 200.783 129.56 202.905 127.937Z" fill="white"/>
<path d="M166.015 171.594L163.957 174.363C163.797 174.576 164.041 174.873 164.434 174.957L200.622 181.96C200.93 182.023 201.216 181.96 201.269 181.726L202.086 178.713C202.139 178.512 201.906 178.278 201.566 178.215L166.619 171.446C166.515 171.415 166.403 171.412 166.297 171.438C166.191 171.464 166.093 171.518 166.015 171.594Z" fill="#00ACFF"/>
<path d="M170.07 176.39L169.136 176.209C168.956 176.209 168.829 176.05 168.86 175.934L169.921 172.029C169.921 171.913 170.133 171.849 170.324 171.881L171.258 172.061C171.438 172.061 171.566 172.22 171.534 172.337L170.473 176.241C170.441 176.358 170.261 176.422 170.07 176.39Z" fill="#00ACFF"/>
<path d="M193.705 181.015L192.761 180.835C192.581 180.835 192.454 180.676 192.485 180.559L193.546 176.655C193.546 176.549 193.758 176.485 193.949 176.517L194.883 176.697C195.074 176.697 195.201 176.857 195.17 176.973L194.109 180.877C194.066 180.994 193.886 181.058 193.705 181.015Z" fill="#00ACFF"/>
<path opacity="0.6" d="M170.07 176.39L169.136 176.209C168.956 176.209 168.829 176.05 168.86 175.934L169.921 172.029C169.921 171.913 170.133 171.849 170.324 171.881L171.258 172.061C171.438 172.061 171.566 172.22 171.534 172.337L170.473 176.241C170.441 176.358 170.261 176.422 170.07 176.39Z" fill="black"/>
<path opacity="0.6" d="M193.705 181.015L192.761 180.835C192.581 180.835 192.454 180.676 192.485 180.559L193.546 176.655C193.546 176.549 193.758 176.485 193.949 176.517L194.883 176.697C195.074 176.697 195.201 176.857 195.17 176.973L194.109 180.877C194.066 180.994 193.886 181.058 193.705 181.015Z" fill="black"/>
</svg>
